<?xml version="1.0" encoding="UTF-8"?><svg xmlns="http://www.w3.org/2000/svg" xmlns:xlink="http://www.w3.org/1999/xlink" viewBox="0 0 844.98 193.24"><defs><style>.cls-1{fill:url(#linear-gradient-2);}.cls-2{fill:#802e32;}.cls-3{isolation:isolate;}.cls-4{fill:url(#linear-gradient-6);mix-blend-mode:multiply;}.cls-5{fill:#ff101d;}.cls-6{fill:url(#linear-gradient-5);}.cls-7{fill:url(#linear-gradient-7);}.cls-8{fill:url(#linear-gradient-3);}.cls-9{fill:url(#linear-gradient);}.cls-10{fill:url(#linear-gradient-4);}</style><linearGradient id="linear-gradient" x1="261.58" y1="232.85" x2="50.52" y2="21.79" gradientTransform="translate(1.99 .59) rotate(-.17)" gradientUnits="userSpaceOnUse"><stop offset="0" stop-color="#ffa700"/><stop offset=".14" stop-color="#ff8805"/><stop offset=".44" stop-color="#ff4e11"/><stop offset=".69" stop-color="#ff2319"/><stop offset=".88" stop-color="#ff091e"/><stop offset="1" stop-color="#ff0020"/></linearGradient><linearGradient id="linear-gradient-2" x1="191.77" y1="302.66" x2="-19.28" y2="91.6" xlink:href="#linear-gradient"/><linearGradient id="linear-gradient-3" x1="240.01" y1="254.42" x2="28.95" y2="43.36" xlink:href="#linear-gradient"/><linearGradient id="linear-gradient-4" x1="268.58" y1="225.85" x2="57.52" y2="14.79" xlink:href="#linear-gradient"/><linearGradient id="linear-gradient-5" x1="303.47" y1="190.96" x2="92.41" y2="-20.09" xlink:href="#linear-gradient"/><linearGradient id="linear-gradient-6" x1="210.73" y1="126.69" x2="60.99" y2="17.19" gradientTransform="translate(1.99 .59) rotate(-.17)" gradientUnits="userSpaceOnUse"><stop offset="0" stop-color="#fff"/><stop offset=".05" stop-color="#fce3e5"/><stop offset=".18" stop-color="#f799a2"/><stop offset=".3" stop-color="#f25e6d"/><stop offset=".39" stop-color="#ef3347"/><stop offset=".47" stop-color="#ed192f"/><stop offset=".52" stop-color="#ed1027"/></linearGradient><linearGradient id="linear-gradient-7" x1="322.53" y1="171.9" x2="111.47" y2="-39.17" xlink:href="#linear-gradient"/></defs><g class="cls-3"><g id="Layer_1"><g><path class="cls-9" d="m253.41,154.41c-3.39-4.36-6.18-12.21-1.57-19.86,2.47-4.06,5.07-8.05,7.82-11.95,7.33-10.46,20.5-12.65,28.12-5.73,7.65,6.92,8.25,18.74,2.41,27.13-2.26,3.25-4.41,6.55-6.47,9.92-3.76,6.21-11.19,7.57-16.7,7.35-2.57-.11-5.03,1.57-6.07,4.13-.57,1.39-1.12,2.81-1.66,4.22l58.13-.17c0-.76,0-1.55-.03-2.33-1.23-67.22-47.64-123.34-110.06-139.42-11.88-3.07-24.33-4.68-37.17-4.64-81.1.24-146.63,66.18-146.39,147.26l108.93-.32c.51-1.73,1.06-3.42,1.62-5.13,4.51-13.79,10.06-27.17,16.52-40.03,2.02-4.02,2.42-8.44.96-11.24-2.78-5.34-4.36-15,1.91-25.35,8.15-13.42,17.36-26.24,27.56-38.33.81-.96,1.78-1.62,2.68-1.94.99-.34,1.91-.24,2.45.37.96,1.05.35,3.36-1.18,5.19-7.71,9.11-14.82,18.67-21.33,28.59-.69,1.04-1.03,2.11-1.06,3.05-.04.89.22,1.63.78,2.03,1.24.95,3.48-.25,4.86-2.36,6.39-9.74,13.38-19.11,20.95-28.06.77-.92,1.73-1.56,2.6-1.84.85-.3,1.63-.24,2.17.17,1.24.91.75,3.4-.84,5.29-7.43,8.79-14.28,18-20.56,27.56-.65,1-.99,2.05-1.01,2.97-.02.91.3,1.67.92,2.06s1.43.35,2.25-.03c.81-.38,1.65-1.1,2.28-2.07,6.16-9.38,12.89-18.43,20.18-27.06,1.57-1.85,3.93-2.66,5.01-1.55.48.48.66,1.21.52,2.07-.12.89-.57,1.87-1.3,2.75-7.15,8.47-13.77,17.32-19.8,26.52-1.33,1.99-1.38,4.44-.02,5.15.6.34,1.37.29,2.13-.05.79-.36,1.59-1.04,2.2-1.99,5.94-9.02,12.41-17.73,19.43-26.04,1.41-1.65,3.49-2.46,4.65-1.62.68.48.92,1.31.8,2.24-.12.88-.53,1.81-1.24,2.67-8.96,10.6-17.03,21.84-24.2,33.61-5.44,9-13.56,12.41-19.52,13.22-3.06.39-6.31,3.3-8.01,7.34-5.43,12.92-9.88,26.19-13.32,39.74-.18.7-.35,1.37-.51,2.07l51.63-.15c.63-2.15.82-4.38.54-6.44-1.16-3.83-2.25-7.75-3.22-11.72-.39-4.59.57-9.62,2.78-14.22,4.31-9.04,9.15-17.8,14.5-26.27,3.48-5.52,8.14-10.14,13.3-13.3,4.96-3.02,9.96-5.83,15.03-8.43,2.16-1.12,4.37-1.01,5.79.22,2.13,1.88,1.93,5.64-.39,8.59-16.97,21.56-29.93,45.8-38.36,71.55l44.2-.13c1.21-2.55,2.47-5.08,3.78-7.57,1.32-2.55,1.22-5.59-.36-7.67Z"/><path class="cls-1" d="m4.33,180.43c0,2.76,1.15,5.27,2.96,7.09,1.81,1.8,4.34,2.93,7.11,2.92l112.91-.33c1.55-6.78,3.34-13.49,5.39-20.1l-118.35.35c-5.55.02-10.03,4.5-10.01,10.07Z"/><path class="cls-8" d="m140.05,190.07l49.25-.15c1.02-3.62,2.11-7.2,3.29-10.75.93-2.83,1.91-5.63,2.96-8.42.12-.3.22-.62.3-.94l-51.63.15c-1.63,6.63-3.02,13.35-4.16,20.09Z"/><path class="cls-10" d="m202.14,181.95c-.71,2.63-1.38,5.27-1.96,7.94l41.57-.12c2.39-6.87,5.15-13.59,8.23-20.1l-44.2.13c-1.34,4.02-2.54,8.08-3.64,12.16Z"/><path class="cls-6" d="m339.79,172.32c-1.81-1.8-4.32-2.91-7.11-2.9l-73.4.22c-2.53,6.59-4.67,13.29-6.44,20.1l79.9-.24c5.55-.02,10.03-4.54,10.01-10.07,0-2.78-1.15-5.29-2.96-7.11Z"/><path class="cls-4" d="m290.18,144c5.84-8.39,5.25-20.22-2.41-27.13-7.62-6.92-20.79-4.73-28.12,5.73-2.75,3.9-5.34,7.89-7.82,11.95-4.61,7.65-1.82,15.49,1.57,19.86,1.58,2.08,1.69,5.12.36,7.67-1.3,2.49-2.57,5.02-3.78,7.57l-44.2.13c8.43-25.75,21.38-49.99,38.36-71.55,2.32-2.95,2.53-6.71.39-8.59-1.42-1.23-3.62-1.34-5.79-.22-5.06,2.6-10.06,5.42-15.03,8.43-5.16,3.16-9.82,7.78-13.3,13.3-5.34,8.47-10.19,17.23-14.5,26.27-2.21,4.6-3.17,9.63-2.78,14.22.97,3.97,2.05,7.89,3.22,11.72.28,2.07.09,4.29-.54,6.44l-51.63.15s0,0,0,0c3.51-14.27,8.13-28.23,13.84-41.81,1.7-4.04,4.95-6.95,8.01-7.34,5.96-.81,14.08-4.22,19.52-13.22,7.16-11.77,15.24-23.01,24.2-33.61.71-.86,1.13-1.79,1.24-2.67.12-.93-.12-1.77-.8-2.24-1.16-.83-3.24-.03-4.65,1.62-7.01,8.31-13.49,17.02-19.43,26.04-.61.96-1.41,1.63-2.2,1.99-.75.34-1.53.38-2.13.05-1.35-.71-1.3-3.16.02-5.15,6.04-9.2,12.65-18.05,19.8-26.52.73-.88,1.19-1.85,1.3-2.75.14-.86-.04-1.59-.52-2.07-1.08-1.11-3.44-.31-5.01,1.55-7.29,8.63-14.02,17.68-20.18,27.06-.63.98-1.47,1.69-2.28,2.07-.81.38-1.63.42-2.25.03s-.94-1.15-.92-2.06c.02-.91.35-1.97,1.01-2.97,6.27-9.56,13.13-18.77,20.56-27.56,1.59-1.89,2.07-4.38.84-5.29-.54-.42-1.31-.47-2.17-.17-.87.28-1.83.92-2.6,1.84-7.57,8.95-14.56,18.31-20.95,28.06-1.39,2.11-3.63,3.31-4.86,2.36-.56-.4-.82-1.13-.78-2.03.04-.93.37-2.01,1.06-3.05,6.51-9.92,13.62-19.48,21.33-28.59,1.53-1.83,2.13-4.14,1.18-5.19-.54-.61-1.45-.71-2.45-.37-.89.32-1.87.98-2.68,1.94-10.2,12.1-19.41,24.91-27.56,38.33-6.27,10.36-4.69,20.01-1.91,25.35,1.46,2.8,1.06,7.21-.96,11.24-6.46,12.86-12.01,26.24-16.52,40.03-.55,1.71-1.1,3.4-1.62,5.13h0c-14.32.04-25.5-12.57-23.54-26.76,8.79-63.75,49.04-112.51,98.18-115.54,62.42,16.08,108.83,72.21,110.06,139.42.02.78.02,1.57.03,2.33l-58.13.17c.53-1.41,1.09-2.83,1.66-4.22,1.05-2.57,3.51-4.25,6.07-4.13,5.51.22,12.94-1.13,16.7-7.35,2.06-3.37,4.22-6.67,6.47-9.92Z"/><path class="cls-7" d="m173.02,2.73h0c-7.58.02-13.71,6.19-13.69,13.77l.04,13.73,27.46-.08-.04-13.73c-.02-7.58-6.19-13.71-13.77-13.69Z"/></g><g><path class="cls-2" d="m444.87,165.83h-4.05v11.28h-4.34v-34.47h9.87c2.87.38,5.28,1.55,7.21,3.5,2.25,2.25,3.38,4.94,3.38,8.07s-1.16,5.88-3.47,8.19c-1.53,1.55-2.89,2.47-4.07,2.75l7.74,11.95h-5.01l-7.26-11.28Zm-4.05-19.4v15.62h4.26c2.01,0,3.77-.75,5.27-2.24,1.5-1.49,2.25-3.36,2.25-5.59s-.75-4.07-2.25-5.56c-1.5-1.48-3.26-2.23-5.27-2.23h-4.26Z"/><path class="cls-2" d="m509.61,142.64v3.76h-14.42v11.59h14.42v3.76h-14.42v11.59h14.42v3.76h-18.76v-34.47h18.76Z"/><path class="cls-2" d="m571.19,169.52l3.02,2.68c-3.88,3.53-8.15,5.29-12.82,5.29-5.01,0-9.25-1.73-12.71-5.19-3.46-3.46-5.19-7.6-5.19-12.44s1.73-8.93,5.19-12.41c3.46-3.48,7.69-5.22,12.71-5.22,4.66,0,8.94,1.77,12.82,5.32l-3.02,2.68c-3.16-2.79-6.43-4.19-9.8-4.19-3.67,0-6.85,1.34-9.52,4.01s-4.01,5.94-4.01,9.81,1.34,7.18,4.01,9.85,5.85,4,9.52,4c3.37,0,6.64-1.4,9.8-4.19Z"/><path class="cls-2" d="m612.41,142.64v34.47h-4.34v-34.47h4.34Z"/><path class="cls-2" d="m651.79,165.83v11.28h-4.34v-34.47h9.87c2.87.38,5.28,1.55,7.21,3.5,2.25,2.25,3.38,4.94,3.38,8.07s-1.14,5.87-3.43,8.17c-2.28,2.3-5.09,3.45-8.43,3.45h-4.26Zm0-19.4v15.62h4.26c2.01,0,3.77-.75,5.27-2.24,1.5-1.49,2.25-3.36,2.25-5.59s-.75-4.07-2.25-5.56-3.26-2.23-5.27-2.23h-4.26Z"/><path class="cls-2" d="m720.37,142.64v3.76h-14.42v11.59h14.42v3.76h-14.42v11.59h14.42v3.76h-18.76v-34.47h18.76Z"/><path class="cls-2" d="m764.72,158.98c-2.48-.81-4.46-1.97-5.96-3.47-1.5-1.5-2.25-3.31-2.25-5.44s.78-3.9,2.34-5.47c1.56-1.57,3.49-2.36,5.81-2.36s4.24.81,5.87,2.42c.85.83,1.51,2,1.99,3.5l-3.88,1.51c-.48-1.29-.91-2.13-1.29-2.52-.78-.8-1.68-1.2-2.68-1.2s-1.87.39-2.65,1.16-1.16,1.76-1.16,2.96.4,2.19,1.2,3.02c.83.8,1.96,1.53,3.4,2.2,2.75.89,5.05,2.27,6.9,4.12,2.12,2.11,3.19,4.6,3.19,7.47s-1.05,5.36-3.15,7.46c-2.1,2.1-4.68,3.15-7.73,3.15s-5.66-1.08-7.78-3.23c-1.66-1.64-2.68-3.78-3.07-6.4l4.17-1.51c.25,2.51.97,4.34,2.13,5.49,1.28,1.28,2.79,1.92,4.55,1.92s3.32-.66,4.63-1.98c1.32-1.32,1.98-2.95,1.98-4.9s-.65-3.57-1.94-4.86c-1.31-1.29-2.84-2.31-4.6-3.04Z"/></g><g><path class="cls-5" d="m405.7,61.11c.77-.31,1.27-.75,1.5-1.32s.38-1.52.46-2.82c0-1.84-.19-2.88-.58-3.11-.38-.23-1.23-.31-2.53-.23-.46,0-.9.04-1.32.12-.42.08-.94.19-1.56.35.69-2.15,1.65-4.63,2.88-7.43,1.23-2.8,2.59-5.64,4.09-8.52,1.5-2.88,3.05-5.62,4.66-8.24,1.61-2.61,3.15-4.8,4.61-6.57-.84-.84-1.55-1.55-2.13-2.13s-1.4-.86-2.48-.86c-.85.08-1.65.1-2.42.06-.77-.04-1.57-.1-2.42-.17-3.38-.15-6.84-.48-10.37-.98-3.53-.5-7.1-1.05-10.71-1.67-3.61-.61-7.22-1.17-10.83-1.67-3.61-.5-7.14-.82-10.6-.98-3.46-.08-6.8.08-10.02.46-3.22.39-6.3,1.17-9.21,2.36-2.92,1.19-5.61,2.88-8.06,5.07-2.46,2.19-4.61,5.01-6.45,8.47-.15.31-.27.63-.34.98s-.04.71.11,1.09c.46,1.08,1.02,2.09,1.67,3.05.65.96,1.48,1.86,2.48,2.71,2.07-2.07,4.32-3.78,6.74-5.13,2.42-1.34,4.97-2.44,7.66-3.28,2.69-.84,5.47-1.46,8.35-1.84,2.88-.38,5.82-.61,8.81-.69,4.3-.15,8.62-.06,12.96.29s8.58.79,12.73,1.32c2.3.23,3.46.38,3.46.46-1.08,2-2.17,4.28-3.28,6.85-1.11,2.57-2.17,5.15-3.17,7.72-1,2.57-1.94,4.97-2.82,7.2-.88,2.23-1.67,3.96-2.36,5.18-4.53,1.15-8.5,2.19-11.92,3.11-3.42.92-6.97,2-10.65,3.23-1.23.38-2.04.88-2.42,1.5-.38.62-.57,1.23-.57,1.84s.13,1.21.4,1.79c.27.58.48,1.02.63,1.32.31.77.82,1.21,1.56,1.32.73.11,1.63.02,2.71-.29,3-.84,5.86-1.65,8.58-2.42,2.72-.77,5.47-1.57,8.24-2.42-.92,2.07-1.82,4.32-2.71,6.74-.88,2.42-1.77,4.9-2.65,7.43s-1.75,5.01-2.59,7.43c-.85,2.42-1.69,4.63-2.53,6.62-.84,2-1.79,3.88-2.82,5.64-1.04,1.77-2.32,3.36-3.86,4.78-1.54,1.42-3.36,2.65-5.47,3.69s-4.63,1.83-7.54,2.36c-.85.16-1.38.42-1.61.81-.23.38-.29.81-.17,1.27.11.46.38.92.81,1.38.42.46.9.92,1.44,1.38,1.54,1.23,2.82,1.84,3.86,1.84s2.44-.27,4.2-.81c3.61-1.08,6.78-2.34,9.5-3.8,2.73-1.46,5.09-3.07,7.08-4.84,2-1.77,3.72-3.65,5.18-5.64,1.46-2,2.76-4.11,3.92-6.34,1.15-2.38,2.21-4.93,3.17-7.66.96-2.72,1.9-5.53,2.82-8.41s1.88-5.78,2.88-8.7c1-2.92,2.15-5.76,3.46-8.52,1.38-.31,2.65-.54,3.8-.69,1.15-.15,2.42-.5,3.8-1.04Z"/><path class="cls-5" d="m525.21,21.61c-.96-.23-1.98-.35-3.05-.35-1.15,0-2.48.1-3.97.29-1.5.19-2.94.48-4.32.86-1.38.38-2.61.88-3.69,1.5-1.08.62-1.73,1.38-1.96,2.3-.61,2.46-1.38,5.01-2.3,7.66-.92,2.65-2.02,5.57-3.28,8.75-1.27,3.19-2.73,6.76-4.38,10.71-1.65,3.96-3.47,8.51-5.47,13.65-1.31,3.3-2.59,6.72-3.86,10.25-1.27,3.53-2.42,7.03-3.46,10.48-1.04,3.46-1.88,6.82-2.53,10.08,0,.02,0,.03,0,.05-.78.66-1.55,1.31-2.29,1.91-1.19.96-2.3,1.75-3.34,2.36-1.04.62-1.9.92-2.59.92-1.15,0-1.73-.73-1.73-2.19,0-1.77.73-4.84,2.19-9.22,1.46-4.38,3.3-9.44,5.53-15.2,1.92-5.07,3.99-10.37,6.22-15.9,2.23-5.53,4.34-10.81,6.33-15.84,1.99-5.03,3.82-9.56,5.47-13.59,1.65-4.03,2.9-7.08,3.74-9.16.23-.54.42-1.04.58-1.5.15-.46.23-1,.23-1.61,0-1.3-.48-2.07-1.44-2.3-.96-.23-1.98-.35-3.05-.35-1.15,0-2.48.1-3.97.29-1.5.19-2.94.48-4.32.86-1.38.38-2.61.88-3.69,1.5-1.08.62-1.73,1.38-1.96,2.3-1.15,4.99-3.07,11.31-5.76,18.95-2.69,7.64-6.07,16.61-10.14,26.9-1.31,3.3-2.59,6.72-3.86,10.25-1.27,3.53-2.42,7.03-3.46,10.48-.26.87-.48,1.73-.71,2.59-.38.11-.88.4-1.53.87-.85.62-1.81,1.4-2.88,2.36-1.08.96-2.25,2-3.51,3.11-1.27,1.11-2.48,2.15-3.63,3.11-1.15.96-2.24,1.75-3.28,2.36-1.04.62-1.9.92-2.59.92-1.23,0-1.84-.73-1.84-2.19,0-2.53.63-5.55,1.9-9.04,1.27-3.49,2.71-6.89,4.32-10.19,1.61-3.3,3.21-6.24,4.78-8.81,1.57-2.57,2.67-4.2,3.28-4.9.46-.54.69-1,.69-1.38,0-.46-.27-.86-.81-1.21-.54-.35-1.23-.52-2.07-.52-3.76,0-6.74.37-8.93,1.09-2.19.73-3.97,1.79-5.36,3.17s-2.57,3.09-3.57,5.13c-1,2.04-2.15,4.4-3.46,7.08-.92,1.92-1.9,4.11-2.94,6.57-1.04,2.46-2.19,4.8-3.46,7.03-1.27,2.23-2.71,4.13-4.32,5.7-1.61,1.57-3.46,2.4-5.53,2.48-.85-.15-1.27-.88-1.27-2.19,0-2.53.63-5.55,1.9-9.04,1.27-3.49,2.71-6.89,4.32-10.19,1.61-3.3,3.21-6.24,4.78-8.81,1.57-2.57,2.67-4.2,3.28-4.9.46-.54.69-1,.69-1.38,0-.46-.27-.86-.81-1.21-.54-.35-1.27-.52-2.19-.52s-2.15.1-3.69.29c-1.54.19-3.09.48-4.66.86-1.58.38-3.02.85-4.32,1.38-1.31.54-2.15,1.11-2.53,1.73-1.54,2.15-2.99,4.82-4.38,8.01-1.38,3.19-2.63,6.55-3.74,10.08-1.11,3.53-2,7.05-2.65,10.54-.65,3.49-.98,6.55-.98,9.16s.52,4.72,1.56,6.33c1.04,1.61,3.01,2.42,5.93,2.42,3.07,0,6.2-.81,9.39-2.42,3.19-1.61,6.51-3.99,9.96-7.14v.81c0,2.69.5,4.82,1.5,6.39,1,1.57,2.99,2.36,5.99,2.36,1.38,0,2.65-.15,3.8-.46,1.31-.31,3.34-1.11,6.11-2.42,2.76-1.3,5.53-3,8.29-5.07,2.2-1.65,4.18-3.51,5.94-5.55-.19,1.65-.3,3.24-.3,4.75,0,2.61.5,4.72,1.5,6.33,1,1.61,2.96,2.42,5.88,2.42,1.61,0,3.19-.23,4.72-.69,1.54-.38,3.65-1.32,6.33-2.82,1.85-1.03,3.68-2.22,5.5-3.54.18,1.84.64,3.39,1.41,4.64,1,1.61,2.95,2.42,5.87,2.42,1.61,0,3.19-.23,4.72-.69,1.54-.38,3.65-1.32,6.33-2.82,2.69-1.5,5.34-3.3,7.95-5.41,2.61-2.11,4.88-4.45,6.8-7.03,1.92-2.57,2.88-5.09,2.88-7.54,0-1.23-.54-1.84-1.61-1.84-.38,0-1,.31-1.84.92-.84.62-1.81,1.4-2.88,2.36-1.08.96-2.24,2-3.51,3.11-1.27,1.11-2.5,2.15-3.69,3.11-1.19.96-2.3,1.75-3.34,2.36-1.04.62-1.9.92-2.59.92-1.15,0-1.73-.73-1.73-2.19,0-1.77.73-4.84,2.19-9.22,1.46-4.38,3.3-9.44,5.53-15.2,1.92-5.07,3.97-10.1,6.16-15.09,2.19-4.99,4.26-9.69,6.22-14.11,1.96-4.41,3.72-8.37,5.3-11.86,1.57-3.49,2.78-6.28,3.63-8.35.23-.54.42-1.04.57-1.5.15-.46.23-1,.23-1.61,0-1.3-.48-2.07-1.44-2.3Z"/><path class="cls-5" d="m611.42,26.56c.84,1.54,1.65,2.63,2.42,3.28.77.65,1.57.98,2.42.98.46,0,1.19-.17,2.19-.52,1-.35,1.98-.77,2.94-1.27.96-.5,1.8-1.04,2.53-1.61s1.09-1.13,1.09-1.67c0-.61-.33-1.42-.98-2.42-.65-1-1.13-1.73-1.44-2.19-2.46-3.15-6.01-5.66-10.65-7.54-4.65-1.88-9.81-2.82-15.49-2.82s-11.38.9-16.64,2.71c-5.26,1.81-9.89,4.24-13.88,7.31-3.99,3.07-7.16,6.66-9.5,10.77-2.34,4.11-3.51,8.47-3.51,13.07,0,3.3.86,6.32,2.59,9.04,1.73,2.73,3.9,5.28,6.51,7.66,2.61,2.38,5.39,4.63,8.35,6.74,2.96,2.11,5.7,4.13,8.24,6.05,1.69,1.31,3.26,2.69,4.72,4.15,1.46,1.46,2.75,3.01,3.86,4.66,1.11,1.65,2,3.46,2.65,5.41s.98,4.13.98,6.51c0,1.84-.44,3.51-1.32,5.01-.88,1.5-2.07,2.8-3.57,3.92-1.5,1.11-3.19,1.98-5.07,2.59-1.88.62-3.82.92-5.82.92-2.23,0-4.38-.33-6.45-.98-2.07-.65-3.92-1.56-5.53-2.71-1.61-1.15-2.9-2.51-3.86-4.09-.96-1.57-1.44-3.24-1.44-5.01,0-.77.13-1.63.4-2.59.27-.96.65-1.82,1.15-2.59.5-.77,1.13-1.42,1.9-1.96.77-.54,1.65-.81,2.65-.81.46,0,.94.04,1.44.11.5.08.98.16,1.44.23,1,.23,1.88.35,2.65.35.84,0,1.5-.48,1.96-1.44.46-.96.69-2.02.69-3.17,0-1.3-.25-2.46-.75-3.46-.5-1-1.29-1.5-2.36-1.5-.92,0-1.96.12-3.11.35-2.69.54-5.01,1.36-6.97,2.48-1.96,1.11-3.55,2.42-4.78,3.92-1.23,1.5-2.13,3.13-2.71,4.9-.58,1.77-.86,3.57-.86,5.41,0,2.61.61,5.3,1.84,8.06,1.23,2.76,2.9,5.26,5.01,7.49,2.11,2.23,4.55,4.07,7.31,5.53s5.72,2.19,8.87,2.19c5.91,0,10.98-.81,15.2-2.42,4.22-1.61,7.68-3.78,10.37-6.51,2.69-2.73,4.66-5.91,5.93-9.56,1.27-3.65,1.9-7.5,1.9-11.58,0-3.69-.65-6.95-1.96-9.79-1.31-2.84-2.96-5.39-4.95-7.66-2-2.26-4.19-4.28-6.56-6.05-2.38-1.77-4.65-3.38-6.8-4.84-1.77-1.15-3.44-2.34-5.01-3.57-1.58-1.23-2.96-2.61-4.15-4.15-1.19-1.54-2.15-3.24-2.88-5.13-.73-1.88-1.09-4.05-1.09-6.51s.42-5.09,1.27-7.66c.84-2.57,2.13-4.9,3.86-6.97,1.73-2.07,3.88-3.76,6.45-5.07,2.57-1.3,5.55-1.96,8.93-1.96s6.14.31,8.29.92c2.15.62,3.86,1.36,5.13,2.25,1.27.88,2.19,1.77,2.76,2.65.57.88.98,1.59,1.21,2.13Z"/><path class="cls-5" d="m782.75,91.41c-.19-.77-.63-1.15-1.32-1.15-.62,0-1.29.33-2.02.98-.73.65-1.29,1.17-1.67,1.56-1.84,1.61-3.8,3.11-5.88,4.49s-4.19,2.55-6.33,3.51c-2.15.96-4.26,1.71-6.33,2.25-2.07.54-4.03.81-5.88.81-2.46,0-4.13-.79-5.01-2.36-.88-1.57-1.13-3.9-.75-6.97.15-1.69.65-3.61,1.5-5.76.84-2.15,1.92-4.18,3.23-6.1,1.31-1.92,2.86-3.53,4.66-4.84,1.8-1.3,3.78-1.96,5.93-1.96,1.46,0,2.34.33,2.65.98.31.65.54,1.21.69,1.67.15.54.25,1.15.29,1.84.04.69.25,1.34.63,1.96.23.46.63.63,1.21.52.57-.11,1.21-.36,1.9-.75.69-.38,1.44-.9,2.25-1.55.81-.65,1.63-1.32,2.48-2.02,1.07-.92,1.92-1.8,2.53-2.65.61-.84.88-1.57.81-2.19,0-.54-.06-1.32-.17-2.36-.12-1.04-.52-2.07-1.21-3.11s-1.79-1.94-3.28-2.71c-1.5-.77-3.63-1.15-6.39-1.15-3.76,0-7.62,1.06-11.58,3.17-3.96,2.11-7.62,4.84-11,8.18-3.38,3.34-6.24,7.1-8.58,11.29-.7,1.26-1.29,2.51-1.83,3.77-.27-.32-.67-.49-1.22-.49-.38,0-1,.31-1.84.92-.85.62-1.81,1.4-2.88,2.36-1.08.96-2.25,2-3.51,3.11-1.27,1.11-2.48,2.15-3.63,3.11-1.15.96-2.25,1.75-3.28,2.36-1.04.62-1.9.92-2.59.92-1.15,0-1.73-.73-1.73-2.19,0-1.54.27-3.38.81-5.53.54-2.15,1.23-4.32,2.07-6.51.84-2.19,1.77-4.24,2.76-6.16,1-1.92,1.99-3.42,2.99-4.49.46-.46.69-.88.69-1.27s-.23-.73-.69-1.04c-.46-.31-1.11-.46-1.96-.46-3.15,0-5.72.31-7.72.92-2,.62-3.65,1.44-4.95,2.48s-2.34,2.28-3.11,3.74c-.77,1.46-1.5,3.03-2.19,4.72-.69,1.69-1.44,3.46-2.25,5.3s-1.86,3.69-3.17,5.53c-1.08,1.46-2.27,2.65-3.57,3.57-1.31.92-2.88,1.38-4.72,1.38-1.38-.23-2.29-.71-2.71-1.44-.42-.73-.63-1.52-.63-2.36,0-3.46.96-6.93,2.88-10.42,1.92-3.49,4.47-6.66,7.66-9.5,3.19-2.84,6.85-5.14,11-6.91,4.15-1.77,8.41-2.65,12.78-2.65,1.08,0,2.13.15,3.17.46,1.04.31,2.02.46,2.94.46,1.38,0,2.07-.69,2.07-2.07,0-.61-.08-1.21-.23-1.79-.16-.58-.31-1.05-.46-1.44-.54-2.23-2.53-3.34-5.99-3.34-6.68,0-13.11,1.15-19.29,3.46-6.18,2.3-11.63,5.36-16.36,9.16-4.72,3.8-8.51,8.14-11.35,13.02-.74,1.26-1.37,2.54-1.92,3.82-.17-.81-.67-1.23-1.54-1.23-.62,0-1.71.67-3.28,2.02-1.58,1.34-3.28,2.8-5.13,4.38-1.84,1.57-3.63,3.03-5.36,4.38-1.73,1.34-3.05,2.02-3.97,2.02-1.15,0-1.77-.58-1.84-1.73.07-.46.17-.94.29-1.44.11-.5.32-1.05.63-1.67.61-1.46,1.46-3.05,2.53-4.78,1.07-1.73,2.24-3.51,3.51-5.36,1.27-1.84,2.55-3.7,3.86-5.59,1.31-1.88,2.42-3.7,3.34-5.47.77-1.38,1.38-2.69,1.84-3.92.46-1.23.69-2.34.69-3.34,0-1.38-.54-2.48-1.61-3.28s-2.88-1.21-5.41-1.21c-2.15,0-4.42.4-6.8,1.21-2.38.81-4.74,1.9-7.08,3.28-2.34,1.38-4.63,3.01-6.85,4.9-2.23,1.88-4.26,3.9-6.11,6.05.84-1.77,1.63-3.36,2.36-4.78.73-1.42,1.36-2.74,1.9-3.97.54-1.07,1.04-2.09,1.5-3.05.46-.96.69-1.98.69-3.05,0-1.3-.46-2.09-1.38-2.36-.92-.27-1.96-.4-3.11-.4-1.08,0-2.36.1-3.86.29-1.5.19-2.96.48-4.38.86-1.42.38-2.65.88-3.69,1.5-1.04.62-1.67,1.38-1.9,2.3-.38,1.54-.85,3.17-1.38,4.9-.54,1.73-1.15,3.59-1.84,5.59-1.77,5.07-3.21,9.52-4.32,13.36-1.11,3.84-2,7.14-2.65,9.91s-1.11,5.09-1.38,6.97c-.27,1.88-.44,3.4-.52,4.55,1.92,1.38,3.69,2.07,5.3,2.07,2.46-.08,4.53-1.32,6.22-3.74,1.69-2.42,3.34-5.47,4.95-9.16,1.54-3.61,3.34-6.81,5.41-9.62,2.07-2.8,4.16-5.18,6.28-7.14,2.11-1.96,4.09-3.44,5.93-4.43,1.84-1,3.3-1.5,4.38-1.5.23,0,.34.12.34.35,0,.39-.31,1-.92,1.84-.77,1.15-1.81,2.61-3.11,4.38-1.31,1.77-2.59,3.73-3.86,5.87-1.27,2.15-2.38,4.43-3.34,6.85-.96,2.42-1.44,4.78-1.44,7.08,0,2.69.5,4.94,1.5,6.74,1,1.8,3.03,2.71,6.11,2.71,3.84,0,7.79-1.27,11.86-3.8,4.07-2.53,8.25-6.22,12.56-11.06.76-.82,1.5-1.83,2.19-3.02-.3,1.65-.47,3.3-.47,4.98s.27,3.11.81,4.49c.77,2.3,2,4.34,3.69,6.11,1.69,1.77,3.65,2.65,5.88,2.65,3.53,0,6.8-.73,9.79-2.19s5.6-3.34,7.83-5.64c.15,1.61.54,2.96,1.15,4.03,1.23,2.3,3.61,3.46,7.14,3.46,3.92,0,7.89-1.27,11.92-3.8,4.03-2.53,8.24-6.22,12.61-11.06.46-.5.91-1.08,1.34-1.72-.02.15-.06.3-.08.45-.31,2.46-.29,4.7.06,6.74.35,2.04,1.13,3.78,2.36,5.24,1.23,1.46,2.96,2.57,5.18,3.34,2.22.77,5.14,1.15,8.75,1.15s7.2-.71,11-2.13c3.8-1.42,7.33-3.24,10.6-5.47,3.26-2.23,6.09-4.68,8.46-7.37,2.38-2.69,3.92-5.3,4.61-7.83.07-.38.02-.96-.17-1.73Z"/><path class="cls-5" d="m839.71,90.26c-.38,0-1,.31-1.84.92-.84.62-1.8,1.4-2.88,2.36-1.08.96-2.24,2-3.51,3.11-1.27,1.11-2.48,2.15-3.63,3.11-1.15.96-2.25,1.75-3.28,2.36-1.04.62-1.9.92-2.59.92-.92,0-1.69-.27-2.3-.81-.61-.54-1.23-1.61-1.84-3.22-.62-1.61-1.09-3.01-1.44-4.2-.34-1.19-.44-1.86-.29-2.02,2.15-1,4.28-2.07,6.39-3.22,2.11-1.15,3.99-2.36,5.64-3.63,1.65-1.27,2.97-2.59,3.97-3.97,1-1.38,1.5-2.84,1.5-4.38,0-.69-.1-1.79-.29-3.28-.19-1.5-.56-3-1.09-4.49-.54-1.5-1.23-2.84-2.07-4.03-.85-1.19-1.88-1.82-3.11-1.9-1.77-.08-3.78.35-6.05,1.27-2.27.92-4.55,2.19-6.85,3.8-2.3,1.61-4.55,3.46-6.74,5.53s-4.09,4.19-5.7,6.33c.46-1.38,1-2.86,1.61-4.43.61-1.57,1.21-3.09,1.79-4.55.58-1.46,1.09-2.76,1.56-3.92.46-1.15.81-2,1.04-2.53,2-4.76,3.82-9,5.47-12.73,1.65-3.72,3.19-7.18,4.61-10.37,1.42-3.19,2.74-6.16,3.97-8.93,1.23-2.76,2.49-5.53,3.8-8.29.46-1.07.94-2.11,1.44-3.11.5-1,.75-2.03.75-3.11,0-.31-.02-.65-.06-1.04-.04-.38-.31-.71-.81-.98-.5-.27-1.34-.46-2.53-.58-1.19-.12-2.9-.02-5.13.29-2,.23-3.61.56-4.84.98-1.23.42-2.23.88-3,1.38-.77.5-1.34,1.06-1.73,1.67-.38.62-.65,1.23-.81,1.84-.38,1-.81,2.17-1.27,3.51-.46,1.34-1,2.78-1.61,4.32-1.77,4.68-3.42,9.1-4.95,13.25s-2.92,7.93-4.14,11.35c-1.23,3.42-2.3,6.39-3.23,8.93-.92,2.53-1.61,4.53-2.07,5.99-2.92,8.68-5.09,15.76-6.51,21.25-1.42,5.49-2.51,9.93-3.28,13.3-.54,2.23-.88,4.03-1.04,5.41-.15,1.38-.27,2.57-.34,3.57,0,.38.42.81,1.27,1.27.85.46,1.84.69,2.99.69s2.36-.29,3.63-.86,2.36-1.71,3.28-3.4c.69-1.3,1.27-2.48,1.73-3.51.46-1.04.9-2.05,1.33-3.05.42-1,.86-2.03,1.32-3.11.46-1.07,1.04-2.26,1.73-3.57,3.15-6.14,6.37-10.9,9.68-14.28,3.3-3.38,6.52-5.07,9.67-5.07.38,0,.61.25.69.75.08.5.12.83.12.98,0,.54-.37,1.36-1.09,2.48-.73,1.11-1.75,2.32-3.05,3.63-1.31,1.31-2.88,2.63-4.72,3.97-1.84,1.34-3.92,2.52-6.22,3.51,0,.77.04,1.58.11,2.42.08.77.15,1.59.23,2.48.08.88.19,1.79.35,2.71.38,2.76.86,5.34,1.44,7.72.57,2.38,1.63,4.15,3.17,5.3,1.23.84,2.8,1.27,4.72,1.27,3.84,0,7.79-1.27,11.86-3.8,4.07-2.53,8.26-6.22,12.56-11.06,1.08-1.07,2.04-2.48,2.88-4.2.84-1.73,1.27-3.21,1.27-4.43s-.54-1.84-1.61-1.84Z"/></g><g><rect class="cls-2" x="389.02" y="158.28" width="28.29" height="3"/><rect class="cls-2" x="795.06" y="158.28" width="27.93" height="3"/></g></g></g></svg>